<svg width="24" height="24" viewBox="0 0 24 24" fill="none" xmlns="http://www.w3.org/2000/svg">
<path d="M19.03 17.818C19.6076 17.6068 20.1064 17.2233 20.4588 16.7192C20.8111 16.2152 21.0001 15.615 21 15V7C21 6.20435 20.6839 5.44129 20.1213 4.87868C19.5587 4.31607 18.7956 4 18 4H6C5.20435 4 4.44129 4.31607 3.87868 4.87868C3.31607 5.44129 3 6.20435 3 7V15C3 16.317 3.85 17.436 5.03 17.84" stroke="#F6F6F6" stroke-width="2" stroke-linecap="round" stroke-linejoin="round"/>
<path d="M8 21C8 20.4696 8.21071 19.9609 8.58579 19.5858C8.96086 19.2107 9.46957 19 10 19H14C14.5304 19 15.0391 19.2107 15.4142 19.5858C15.7893 19.9609 16 20.4696 16 21M10 14C10 14.5304 10.2107 15.0391 10.5858 15.4142C10.9609 15.7893 11.4696 16 12 16C12.5304 16 13.0391 15.7893 13.4142 15.4142C13.7893 15.0391 14 14.5304 14 14C14 13.4696 13.7893 12.9609 13.4142 12.5858C13.0391 12.2107 12.5304 12 12 12C11.4696 12 10.9609 12.2107 10.5858 12.5858C10.2107 12.9609 10 13.4696 10 14Z" stroke="#F6F6F6" stroke-width="2" stroke-linecap="round" stroke-linejoin="round"/>
</svg>
